<svg xmlns="http://www.w3.org/2000/svg" viewBox="0 0 223.266 237.27" height="896.767" width="843.841"><path d="M0 236.622c.002-2.533 1.736-23.88 2.749-33.824.066-.652.143-1.642.17-2.201.3-6.002 1.24-14.261 3.27-28.702 1.54-10.952 1.744-12.493 1.978-14.997.29-3.087 1.258-9.005 3.77-23.019.6-3.352 1.23-6.877 1.399-7.831 1.108-6.266 3.44-16.141 6.102-25.851 5.383-19.63 12.619-37.179 21.441-52 4.92-8.267 10.124-15.401 15.964-21.887 2.621-2.91 7.238-7.352 10.263-9.873C76.763 8.39 87.154 3.185 97.748 1.087c6.498-1.288 12.178-1.416 20.7-.467 6.028.671 10.617 1.713 14.733 3.346 1.39.552 6.364 3.025 8.66 4.306 6.326 3.528 11.4 7.065 15.55 10.842 1.317 1.197 3.991 3.891 5.645 5.686 9.115 9.895 16.198 20.188 22.857 33.218 3.901 7.634 6.806 14.456 11.602 27.25 5.274 14.067 8.97 25.673 10.734 33.71.738 3.36 7.58 36.653 7.665 37.296.052.396.301 2.262.554 4.148 1.647 12.29 3.265 26.111 4.4 37.592.216 2.17.55 6.422.765 9.737 1.004 15.447 1.65 26.735 1.652 28.835l.001.684-111.633-.006L0 237.258zm52.779-5.908c.022-.037-.068-.115-.2-.174-.604-.267-.713-1.027-.633-4.416a47.774 47.774 0 00-.254-6.56c-.1-.97-.135-1.114-.3-1.228-.557-.382-.56-.392-.623-1.614a21.386 21.386 0 00-.178-1.875c-.184-1.13-.255-2.544-.138-2.762.054-.1.22-.245.37-.32.15-.076.483-.358.739-.626.43-.45.515-.5 1.1-.64.804-.192 1.444-.192 2.023 0 .502.167 1.178.144 1.593-.054.233-.111.238-.129.28-1.01.026-.57.083-.947.155-1.033.063-.075.406-.294.762-.486.714-.385 2.16-1.314 2.662-1.71.176-.138.582-.604.902-1.035.779-1.05 1.964-2.415 2.702-3.11.33-.313 1.165-1.017 1.853-1.564 1.548-1.232 2.998-2.682 3.833-3.833 1.547-2.136 2.178-2.952 3.596-4.652 1.571-1.885 2.294-2.65 2.9-3.069.28-.194.383-.335.48-.661.067-.228.167-.497.22-.598.114-.212.704-.502 1.026-.505.304-.003.619-.271.83-.708.255-.526.477-.7 1.327-1.035 1-.396.986-.387 1.156-.72.196-.386.326-.47.828-.537.487-.065.961-.42 1.054-.791.088-.351.204-.444.554-.444.465 0 .633-.2.93-1.101.144-.442.465-1.185.71-1.651.936-1.77 4.05-6.592 6.235-9.652.665-.931 2.015-2.855 3-4.276.984-1.42 1.968-2.827 2.186-3.126.396-.543.635-.99 1.195-2.228.33-.728.618-1.176 1.19-1.847.346-.405.385-.494.387-.88.002-.503.037-.57.4-.757.229-.117.276-.19.276-.426 0-.2.065-.344.222-.485.621-.557.643-.587.598-.818-.325-1.68-.332-1.76-.29-3.34.04-1.466.032-1.603-.116-1.79-.285-.363-.13-1.319.234-1.442.23-.078.939-1.672 1.087-2.446.22-1.147.552-1.63 2.569-3.74.623-.652 1.169-1.278 1.212-1.39a.885.885 0 00.03-.43c-.079-.356.086-.647.503-.892.584-.342.724-.566.724-1.158 0-.499.003-.504.472-.952.472-.45.473-.45.414-.842-.068-.45.02-.606.384-.686.133-.03.292-.114.353-.188.096-.114.075-.16-.142-.312a5.417 5.417 0 01-.6-.535c-.338-.348-.353-.354-.675-.265-.803.221-1.733-.139-2.705-1.047a4.801 4.801 0 01-1.311-2.056c-.154-.495-.21-.514-.477-.166-1.509 1.957-2.365 2.829-3.138 3.195-.545.258-.628.273-1.55.273-1.57 0-2.124-.318-2.238-1.285a59.917 59.917 0 00-.323-2.017c-.227-1.315-.263-1.727-.263-3.006.002-3.828 1.08-8.55 2.677-11.726.578-1.15.734-1.727.87-3.217.199-2.162.515-3.54 1.061-4.625.283-.561.447-.733 1.804-1.887 1.465-1.246 2.122-1.724 2.509-1.828.285-.077.372-.157.548-.505.347-.684.75-.843 1.295-.51.152.092.334.168.403.168.118 0 1.367-.895 1.807-1.294.184-.168.196-.227.149-.74-.148-1.593-.524-2.84-.98-3.252-.162-.147-.178-.143-.52.15a2.38 2.38 0 01-1.496.564c-.479 0-.607.074-1.238.718-.6.612-1.073.806-1.963.806-1.366 0-1.855-.485-2.788-2.769-.176-.429-.394-.848-.486-.931-.134-.12-.365-.16-1.129-.194-.569-.025-1.001-.083-1.06-.142-.055-.055-.113-.26-.13-.456a2.112 2.112 0 00-.251-.734c-.374-.637-.388-.797-.157-1.688.4-1.536.542-1.654 2.28-1.885.913-.12 1.183-.261 1.104-.576-.03-.12-.17-.384-.309-.587-.37-.539-.498-.898-.498-1.401.001-.604.109-.954.48-1.552 1.065-1.714 1.118-2.25.32-3.224-.442-.54-.627-1.01-.628-1.598 0-.429.064-.648.41-1.403a17.22 17.22 0 01.929-1.71c.285-.448.614-1.032.731-1.296.639-1.444 2.288-2.968 3.684-3.404.333-.104.744-.145 1.44-.141.865.004 1.062.035 1.768.275.437.149.919.27 1.07.27.153 0 .91-.21 1.683-.467 1.613-.535 2.346-.638 3.097-.435.601.163.726.093.798-.45.21-1.591 1.43-3.893 3.112-5.871.388-.458.772-.915.852-1.016.084-.107.273-.793.446-1.624.492-2.356 1.297-5.274 1.64-5.947.217-.425.746-.901 1.165-1.05.202-.07.687-.115 1.26-.115.887 0 .956.013 1.462.277.293.153.755.335 1.028.405.573.146.686.129 3.394-.523 2.905-.7 2.963-.682 3.673 1.13.168.43.457 1.283.641 1.894.185.611.393 1.2.464 1.308.09.137.342.262.83.411.992.305 1.332.513 2.159 1.325.896.878 1.368 1.508 1.852 2.47.694 1.38.753 1.724.75 4.341-.003 2.463-.102 3.433-.506 4.992-.558 2.144-1.833 4.496-3.261 6.012-1.021 1.084-1.063 1.235-.758 2.724.23 1.124.218 1.097.574 1.316.172.106.718.582 1.212 1.058.495.476.99.888 1.1.915.112.027.647-.027 1.191-.12 1.398-.24 5.558-.7 5.76-.635.092.029.221.183.288.341.153.366.372.376 1.03.044.797-.402 1.57-.594 3.272-.815a57.423 57.423 0 001.843-.258c.446-.095.656.182.915 1.208.12.48.279.617.71.617.347 0 .387.03 1.185.89.455.488.855.888.89.888.033 0 .192-.27.352-.601.33-.68.763-1.12 1.245-1.265.187-.056.673-.086 1.13-.069.698.026.87.065 1.349.303.69.344 1.287.857 1.58 1.358.291.496.302 1.258.028 1.988-.1.267-.159.524-.13.571.03.047.307.086.617.086h.563l.426.446c.366.383.691.579 2.272 1.367 1.015.507 1.883.992 1.93 1.078a.938.938 0 00.27.279c.167.108.246.102.691-.049.634-.215.968-.159 1.404.235l.331.3.39-.281c.552-.396.941-.388 1.37.03.373.362.693.5 1.166.503.456.003.668.155.793.57.057.192.136.348.176.348.04 0 .3-.41.58-.91.278-.5.855-1.513 1.28-2.25 1.615-2.792 2.715-5.195 3.631-7.931l.639-1.905-.015-1.186c-.015-1.222-.152-3.53-.236-3.98-.073-.393-1.121-3.634-1.45-4.486-.276-.714-.29-.8-.228-1.355.078-.703.077-1.216-.005-2.413-.044-.636-.023-1.209.076-2.014.076-.619.113-1.228.084-1.355-.073-.312-2.592-6.204-3.482-8.146-3.352-7.312-7.626-14.93-11.778-20.997-3.91-5.712-7.676-10.296-12.074-14.693-5.83-5.831-11.626-10.057-18.103-13.202-10.213-4.958-20.87-6.139-31.296-3.466-5.566 1.427-11.112 3.963-16.51 7.55-10.697 7.108-20.652 18.582-29.07 33.505-1.973 3.499-4.466 8.416-6.196 12.221-9.118 20.06-15.517 44.215-18.54 69.99-1.07 9.121-1.793 19.527-1.955 28.11a170.022 170.022 0 01-.423 9.398l-.31 4.53c-.072 1.066-.099 3.36-.084 7.178.02 5.569-.002 6.715-.327 16.105-.304 8.795-.335 10.846-.336 22.077l-.001 11.112H39.45c7.308 0 13.306-.03 13.329-.066zm10.35-.388c-.458-.412-.5-.481-.538-.872-.055-.562.12-.89.592-1.119.428-.207 1.107-.349 1.673-.349.729 0 2.473-.347 4.105-.817 2.669-.769 4.652-1.579 6.09-2.487l.558-.352-.213-.253c-.116-.139-.212-.335-.212-.437 0-.309 1.08-1.834 1.78-2.512.392-.38.745-.815.881-1.085.477-.95 2.12-3.811 2.535-4.416.239-.348.87-1.09 1.4-1.648 1.83-1.924 2.515-2.826 3.609-4.746.318-.56 1.136-1.912 1.817-3.006 2.05-3.29 2.577-4.206 4.022-6.985.363-.698.907-1.721 1.208-2.272.508-.93.545-1.033.508-1.418-.044-.456-.015-.518.102-.226.07.176.076.17.072-.063a3.026 3.026 0 00-.061-.508L93 194.5l-.103.289c-.057.158-.195.41-.308.557-.253.331-2.838 1.985-4.084 2.613-1.128.568-1.872 1.09-2.87 2.012a63.797 63.797 0 01-3.304 2.877c-2.045 1.68-4.426 3.71-5.104 4.352-1.184 1.12-3.808 4.444-4.646 5.884-1.624 2.79-2.94 4.98-3.093 5.144-.097.105-.58.445-1.072.756-2.023 1.276-4.796 3.219-5.407 3.787-.359.334-1.119 1-1.69 1.48-1.27 1.07-1.318 1.074-1.704.147-.143-.344-.36-.982-.482-1.419-.492-1.757-.517-1.826-.568-1.598-.026.117-.187.917-.358 1.778-.17.862-.422 2.056-.56 2.654-.139.598-.258 1.317-.266 1.597-.012.457.01.53.212.704.124.107.434.273.688.368.502.187 1.254.616 1.557.887.247.22.24.523-.019.945-.115.186-.21.367-.211.402-.002.035.902.062 2.008.06l2.01-.003zm18.26.349c.058-.163-.098-.403-.26-.402-.163.001-1.034.39-1.034.461 0 .026.282.046.628.046.425 0 .64-.034.665-.105zm16.376-.085c-.235-1.015-.31-1.42-.31-1.672 0-.561.25-1.48.582-2.134l.333-.656-.332-.263c-.205-.162-.332-.334-.332-.447.001-.1.215-.564.476-1.03.26-.466.786-1.532 1.166-2.37.38-.839.943-1.944 1.25-2.456 1.062-1.769 1.433-2.621 2.474-5.683a60.784 60.784 0 011.434-3.763c.772-1.783 2.071-4.995 2.514-6.217.435-1.201 1.236-2.899 2.277-4.826 1.324-2.452 1.9-3.253 3.691-5.127.581-.607.702-.782.75-1.088.06-.377.225-.58.852-1.056.41-.312.557-.671.557-1.365 0-.688.164-1.102.513-1.293.582-.32.629-.389.644-.965l.021-.724c.004-.103.162-.34.352-.529l.346-.342-.07-.571c-.039-.314-.067-1.712-.062-3.106l.01-2.534-.168.206c-.092.113-.52.91-.953 1.772-.76 1.515-.835 1.627-2.284 3.429-2.66 3.31-2.922 3.824-3.225 6.35-.047.388-.1.469-.631.974-.67.636-.975 1.157-1.605 2.751-.637 1.61-1.09 2.396-2.71 4.7-1.664 2.364-3.334 4.793-3.792 5.516-.853 1.344-1.297 2.249-2.675 5.457-2.146 4.995-2.49 5.92-3.174 8.542-.23.885-.541 1.99-.691 2.455-.561 1.746-.829 2.11-1.647 2.244-.773.126-1.625.481-1.684.703-.028.102-.052.529-.053.948-.005 1.492-.397 2.556-1.28 3.476-.466.485-.577.693-.441.828.03.03 1.826.056 3.989.056h3.933zm30.472-.085c-.03-.151-.223-.624-.43-1.05-.332-.686-.41-.787-.675-.874-.575-.19-.64-.371-.64-1.783 0-1.482.105-2.162.896-5.779.498-2.278.567-2.706.63-3.912.057-1.116.107-1.46.282-1.948.25-.695.437-1.603.855-4.142.412-2.501.577-3.229 1.115-4.917.52-1.633.682-2.37 1.639-7.452.759-4.03.799-4.205 1.176-5.142.296-.739.374-1.183.566-3.239.214-2.303.478-3.25 1.127-4.054.309-.383.325-.535.103-.97-.261-.512-.287-.87-.17-2.347.144-1.838.05-2.753-.462-4.524-.616-2.126-.735-2.85-.818-4.996-.128-3.29-.556-7.451-1.063-10.329-.406-2.3-.766-3.757-.978-3.948-.165-.15-.174-.148-.33.055-.207.27-.207.511.001.864.223.377.315 1.092.431 3.347.114 2.222.056 11.494-.08 12.699-.049.43-.128 1.935-.177 3.344-.134 3.899-.303 5.395-.99 8.743a20.81 20.81 0 00-.37 2.582c-.115 1.776-.408 2.474-1.68 4a4.395 4.395 0 00-.994 2.085c-.373 1.967-.647 2.595-2.454 5.612-1.696 2.83-2.23 3.643-3.28 4.982-1.493 1.906-2.23 3.218-3.537 6.287a69.646 69.646 0 01-1.767 3.746c-1.14 2.218-1.722 3.52-1.897 4.242-.066.275-.144 1.09-.172 1.812-.028.722-.106 1.54-.174 1.82-.23.956-.155 1.179.58 1.713.239.174.63.474.869.667.797.643 1.669.96 3.122 1.136.981.119 1.781.32 2.013.508.162.132.18.221.164.793l-.02.644H128.29l-.053-.275zm67.046-5.927c.034-3.131.067-11.98.074-19.663.01-13.447.003-14.274-.225-22.056-.13-4.447-.272-10.753-.316-14.012-.044-3.26-.1-6.213-.125-6.562-.025-.35-.102-1.568-.173-2.71-.07-1.14-.334-4.607-.587-7.704a1798.54 1798.54 0 01-.635-7.959c-1.386-18.383-4.446-36.138-9.093-52.747-.858-3.066-.94-3.339-.969-3.194-.022.115-.061.127-.189.06-.134-.072-.167-.054-.199.105a300.792 300.792 0 00-1.228 6.881c-.458 2.93-1.433 7.509-2.092 9.822-.393 1.379-.964 2.824-1.44 3.64-.81 1.388-.968 1.71-1.177 2.382-.282.91-.575 1.304-1.151 1.552-.405.174-.537.19-1.214.141-.417-.03-.981-.1-1.253-.156l-.495-.102-.288.314c-.266.291-.322.314-.763.314-.5 0-.722-.078-1.038-.366l-.192-.175-.58.313c-.883.477-1.065.431-1.863-.468-.502-.566-.627-.819-.73-1.484-.062-.4-.087-.414-.433-.233-.31.16-.676.161-1.132 0-.198-.07-.65-.127-1.005-.127-.798 0-2.049-.188-2.89-.432-.456-.133-.884-.188-1.523-.195-.866-.01-.905-.02-1.482-.338-1.302-.719-1.174-.68-1.893-.571-1.1.167-1.452.134-2.072-.194l-.55-.292-.704 1.407c-.388.774-.804 1.544-.925 1.71-.33.455-1 .784-1.7.834-.322.023-.619.09-.67.151-.05.06-.147.541-.215 1.069-.337 2.584-.936 5.75-1.431 7.557-.163.594-.296 1.139-.296 1.21 0 .071.08.26.18.42.267.434.181.878-.396 2.044l-.49.988-.064 1.1c-.05.835-.119 1.264-.289 1.778-.413 1.248-.352 2.849.178 4.677.291 1.006.285 1.032-.336 1.486-.153.112-.152.127.055.455.118.186.255.485.304.664.119.429-.079.877-.612 1.392l-.39.376.586.604c.664.685.769.938.565 1.365-.178.374-.177.39.074.758.116.172.211.373.211.447 0 .074-.133.35-.296.615-.164.264-.276.535-.25.602.025.067.19.202.364.3.502.282.636.474.58.824-.04.245 0 .38.208.7l.258.399-.072 1.481c-.143 2.953-.079 4.258.395 8.001.355 2.807.57 4.886.668 6.435.139 2.209.188 8.166.093 11.303-.103 3.432-.255 5.209-.579 6.79l-.236 1.153.193 1.468c.26 1.987.338 3.496.202 3.928-.058.184-.25.582-.424.885-.445.77-.482.925-.679 2.879-.271 2.694-.452 3.463-1.191 5.074-.406.882-.43.973-.35 1.288.054.213.057.437.007.607a72.29 72.29 0 00-.461 2.048c-.211.978-.665 2.863-1.009 4.19-.72 2.785-2.017 8.163-2.296 9.526a21.818 21.818 0 00-.285 1.947c-.244 2.628-.52 4.83-.673 5.351-.044.15-.149.39-.234.535-.152.258-.152.266.014.357.093.052.29.214.438.36.386.384.437.776.21 1.61-.103.372-.373 1.394-.602 2.27-.412 1.575-.414 1.595-.252 1.757.09.09.199.164.241.164.043 0 1.062.472 2.265 1.049 1.203.576 2.599 1.192 3.101 1.367.98.341 1.2.514 1.293 1.013.036.19-.002.401-.117.662-.093.21-.148.405-.12.432.026.027 10.572.049 23.434.049h23.386l.062-5.694zM93.294 193.95c.002-.403-.024-.588-.07-.508-.12.205-.245 1.016-.164 1.066.04.025.076.129.08.23.005.18.008.18.078.017.04-.093.074-.455.076-.805zm1.522-2.174c.421-.569.725-1.442.663-1.905-.036-.267-.02-.326.075-.29.078.03.12-.012.12-.12 0-.268-.187-.188-.559.239-.361.415-1.812 3.1-1.812 3.353 0 .213 1.093-.71 1.513-1.277zm36.65-32.983a8.733 8.733 0 01-.15-.673c-.1-.508-.128-.558-.267-.484-.2.108-.196.294.015.562.093.118.17.324.17.458 0 .166.042.242.135.242.075 0 .119-.047.097-.105zm-.233-1.422c0-.112-.114-.102-.237.02-.16.16-.118.253.068.153.093-.05.17-.128.17-.173zm-13.5-58.066c-.058-.181-.45-.568-.512-.506-.064.064.131.598.282.772.116.135.14.137.205.02a.415.415 0 00.025-.286zm-.216.162c0-.043.038-.103.084-.131.048-.03.062.004.033.08-.056.146-.117.173-.117.051zm6.162-4.991c.06-.085.196-.474.304-.865.108-.39.278-.896.379-1.123.1-.227.183-.494.183-.593 0-.1-.29-.614-.643-1.143a24.294 24.294 0 01-1.231-2.132c-.637-1.266-1.112-1.82-1.87-2.182-.96-.459-1.102-.31-.826.859.257 1.09.254 2.516-.008 3.614-.232.975-.23 1.039.043 1.364.375.445.286.866-.313 1.488l-.342.355.575.62c.51.548 1.059 1.447 1.06 1.734 0 .114 2.523-1.759 2.69-1.996zm59.49-6.897c-.057-.15-.289-.194-.289-.055 0 .047.057.085.127.085s.127.044.127.099c0 .054.02.079.044.054.025-.024.02-.107-.009-.183zm-4.397-12.215c.076-.076.122-.18.103-.233l-.228-.622c-.105-.29-.224-.507-.265-.482-.1.062-.094.988.009 1.258.096.252.19.271.382.079zm-.38-1.618c0-.041-.055-.149-.124-.239-.115-.153-.124-.138-.127.202-.002.325.012.351.125.238.07-.07.127-.16.127-.201z"/></svg>