<?xml version="1.0" encoding="UTF-8" standalone="no"?>
<svg
   xmlns:dc="http://purl.org/dc/elements/1.1/"
   xmlns:cc="http://creativecommons.org/ns#"
   xmlns:rdf="http://www.w3.org/1999/02/22-rdf-syntax-ns#"
   xmlns:svg="http://www.w3.org/2000/svg"
   xmlns="http://www.w3.org/2000/svg"
   id="svg8"
   version="1.1"
   viewBox="0 0 223.26628 237.26964"
   height="237.26964mm"
   width="223.26628mm">
  <defs
     id="defs2" />
  <metadata
     id="metadata5">
    <rdf:RDF>
      <cc:Work
         rdf:about="">
        <dc:format>image/svg+xml</dc:format>
        <dc:type
           rdf:resource="http://purl.org/dc/dcmitype/StillImage" />
        <dc:title></dc:title>
      </cc:Work>
    </rdf:RDF>
  </metadata>
  <g
     transform="translate(-14.044093,-31.285535)"
     id="layer1">
    <path
       id="path3724"
       d="m 14.044481,267.90792 c 0.0015,-2.53317 1.735946,-23.87955 2.74824,-33.82433 0.06636,-0.65193 0.143417,-1.64253 0.171234,-2.20133 0.298754,-6.00145 1.239757,-14.26091 3.270032,-28.702 1.539732,-10.95192 1.74295,-12.49319 1.977377,-14.99696 0.289022,-3.08686 1.258088,-9.00518 3.769029,-23.01837 0.600769,-3.3528 1.230508,-6.87705 1.399419,-7.83167 1.108704,-6.2659 3.439897,-16.14122 6.102417,-25.85082 5.382602,-19.62912 12.618623,-37.178495 21.440897,-52.000179 4.920577,-8.266715 10.124458,-15.400988 15.964329,-21.886333 2.620928,-2.910616 7.237899,-7.352071 10.263112,-9.872956 9.656994,-8.047093 20.047713,-13.252759 30.641183,-15.350993 6.49818,-1.287084 12.1788,-1.415068 20.701,-0.466393 6.02731,0.670947 10.61681,1.713447 14.732,3.346351 1.39021,0.55163 6.36431,3.024125 8.66102,4.30516 6.32582,3.528344 11.39855,7.065178 15.55026,10.842006 1.31651,1.197646 3.99003,3.891426 5.64378,5.686554 9.11578,9.895067 16.19854,20.188283 22.85728,33.217937 3.90103,7.633454 6.80572,14.455556 11.60234,27.249906 5.27379,14.06715 8.9693,25.67275 10.73412,33.71009 0.7376,3.35924 7.57952,36.65326 7.66424,37.29567 0.0522,0.39582 0.30167,2.26272 0.55437,4.14867 1.64678,12.29039 3.26471,26.11064 4.40087,37.59199 0.21475,2.17021 0.54822,6.42175 0.7637,9.73667 1.00404,15.44682 1.6511,26.73535 1.6528,28.83513 l 8.5e-4,0.68346 -111.633,-0.006 -111.633287,-0.006 z m 52.778166,-5.9087 c 0.02267,-0.0367 -0.0671,-0.11465 -0.199504,-0.17326 -0.603775,-0.26725 -0.712655,-1.02714 -0.632845,-4.4167 0.057,-2.42065 -0.01236,-4.21364 -0.253749,-6.55994 -0.09979,-0.96992 -0.135059,-1.11405 -0.300437,-1.22767 -0.556746,-0.38249 -0.560273,-0.39163 -0.622628,-1.61395 -0.03197,-0.62669 -0.112182,-1.47068 -0.178248,-1.87552 -0.184325,-1.12951 -0.255183,-2.54335 -0.1384,-2.76155 0.05405,-0.10099 0.220963,-0.24541 0.370923,-0.32093 0.149962,-0.0755 0.482208,-0.35689 0.738324,-0.62524 0.429399,-0.44992 0.515061,-0.49974 1.099866,-0.63967 0.804304,-0.19246 1.444053,-0.19242 2.023213,0 0.502041,0.16691 1.178233,0.14379 1.593106,-0.0544 0.232746,-0.11122 0.237543,-0.12858 0.279149,-1.01002 0.02687,-0.56923 0.08381,-0.94665 0.155885,-1.03318 0.06245,-0.075 0.405353,-0.29364 0.762,-0.48592 0.713459,-0.38464 2.160128,-1.31335 2.661976,-1.70891 0.176107,-0.1388 0.58185,-0.60509 0.901651,-1.03621 0.77901,-1.05014 1.96404,-2.41436 2.701721,-3.11024 0.33131,-0.31254 1.165194,-1.01601 1.853075,-1.56328 1.54822,-1.23174 2.99883,-2.68253 3.833026,-3.8335 1.547708,-2.13542 2.178478,-2.95137 3.596158,-4.65191 1.571601,-1.88516 2.294334,-2.64999 2.899404,-3.06831 0.28063,-0.19402 0.383618,-0.33584 0.480295,-0.66138 0.06769,-0.22792 0.167182,-0.49684 0.221102,-0.59758 0.11361,-0.21229 0.703019,-0.5029 1.025456,-0.5056 0.304044,-0.003 0.618739,-0.27083 0.830274,-0.7078 0.254721,-0.52618 0.476622,-0.69939 1.32635,-1.03533 0.999991,-0.39533 0.986512,-0.38693 1.15612,-0.72041 0.195884,-0.38514 0.326495,-0.46971 0.828163,-0.53626 0.487138,-0.0646 0.961104,-0.4204 1.054202,-0.79134 0.08808,-0.35095 0.204134,-0.44406 0.553464,-0.44406 0.465026,0 0.633088,-0.19902 0.929439,-1.10066 0.145402,-0.44239 0.465676,-1.18534 0.711717,-1.651 0.935065,-1.76973 4.049875,-6.59188 6.234605,-9.652 0.66491,-0.93134 2.01458,-2.85539 2.99927,-4.27567 0.98469,-1.42028 1.96864,-2.8271 2.18658,-3.12626 0.3954,-0.54278 0.63489,-0.98941 1.1949,-2.22841 0.32902,-0.72795 0.61784,-1.17601 1.19061,-1.84702 0.34551,-0.40477 0.38469,-0.49403 0.38585,-0.87891 0.002,-0.50414 0.0369,-0.57093 0.40088,-0.75742 0.2281,-0.11688 0.27516,-0.18978 0.27516,-0.42626 0,-0.20082 0.0658,-0.34431 0.22221,-0.48466 0.62163,-0.55779 0.64289,-0.58688 0.59809,-0.81825 -0.3254,-1.68064 -0.33219,-1.75916 -0.28928,-3.33967 0.0398,-1.46667 0.0309,-1.6034 -0.11696,-1.79136 -0.28464,-0.36186 -0.12919,-1.31764 0.23438,-1.44105 0.23076,-0.0783 0.93886,-1.67174 1.08702,-2.44608 0.21937,-1.14654 0.55178,-1.63054 2.56883,-3.74032 0.62327,-0.65193 1.16866,-1.27767 1.21197,-1.39054 0.0433,-0.11286 0.0565,-0.30627 0.0294,-0.42979 -0.078,-0.35509 0.0869,-0.64671 0.50389,-0.89107 0.58374,-0.34209 0.72377,-0.56611 0.72377,-1.15784 0,-0.49921 0.003,-0.50468 0.47234,-0.95234 0.47149,-0.44942 0.47224,-0.45095 0.41361,-0.84193 -0.0676,-0.45094 0.0194,-0.60638 0.38405,-0.68649 0.13327,-0.0293 0.29233,-0.1135 0.35349,-0.18718 0.0952,-0.1147 0.0747,-0.15956 -0.14233,-0.31205 -0.13942,-0.098 -0.40922,-0.33866 -0.59956,-0.53491 -0.33816,-0.34866 -0.35361,-0.35473 -0.67597,-0.26572 -0.80231,0.22153 -1.73265,-0.13837 -2.70496,-1.0464 -0.61467,-0.57403 -1.07418,-1.295 -1.31062,-2.0564 -0.15364,-0.49476 -0.20912,-0.51406 -0.47736,-0.16605 -1.50863,1.95732 -2.36466,2.82908 -3.13747,3.19513 -0.5452,0.25822 -0.62864,0.27292 -1.54988,0.27292 -1.57,0 -2.12421,-0.31817 -2.23865,-1.28518 -0.0321,-0.27105 -0.1771,-1.17862 -0.32227,-2.01682 -0.22779,-1.3153 -0.26383,-1.72691 -0.26312,-3.00567 0.002,-3.82862 1.07998,-8.55058 2.67669,-11.72633 0.57827,-1.15015 0.73448,-1.72727 0.87082,-3.21733 0.19782,-2.16188 0.51375,-3.53994 1.06029,-4.62481 0.28254,-0.56082 0.44735,-0.73317 1.80438,-1.88691 1.46504,-1.24559 2.12131,-1.72386 2.50839,-1.8281 0.28522,-0.0768 0.37178,-0.15654 0.5485,-0.50529 0.34628,-0.68335 0.74975,-0.84238 1.29452,-0.51025 0.15246,0.093 0.33379,0.16902 0.40293,0.16902 0.11827,0 1.36731,-0.89487 1.80676,-1.29445 0.18483,-0.16807 0.19675,-0.22724 0.1491,-0.73996 -0.14803,-1.59269 -0.52348,-2.83957 -0.97922,-3.25201 -0.16268,-0.14722 -0.17829,-0.14273 -0.51995,0.14972 -0.41202,0.35267 -0.97379,0.5647 -1.49616,0.5647 -0.4793,0 -0.60696,0.074 -1.23831,0.71791 -0.6,0.61193 -1.07284,0.80609 -1.96309,0.80609 -1.36602,0 -1.85501,-0.48567 -2.78821,-2.76929 -0.17522,-0.42881 -0.394,-0.84791 -0.48618,-0.93134 -0.13324,-0.1206 -0.36453,-0.16038 -1.12846,-0.19403 -0.56866,-0.0251 -1.00142,-0.083 -1.0602,-0.14195 -0.0546,-0.0548 -0.1129,-0.25988 -0.12951,-0.45578 -0.0166,-0.19591 -0.12976,-0.52608 -0.25144,-0.73373 -0.37349,-0.6373 -0.38835,-0.79717 -0.1569,-1.688 0.39923,-1.53653 0.54152,-1.65414 2.28029,-1.88468 0.9126,-0.12101 1.18225,-0.26196 1.10325,-0.5767 -0.0301,-0.11981 -0.1689,-0.38385 -0.3085,-0.58677 -0.3708,-0.53893 -0.49848,-0.89829 -0.49795,-1.40151 8.5e-4,-0.60356 0.10892,-0.95324 0.48039,-1.55136 1.06481,-1.71448 1.11785,-2.24995 0.31938,-3.22438 -0.44194,-0.53933 -0.6271,-1.01071 -0.62776,-1.59814 -8.4e-4,-0.4285 0.0636,-0.64794 0.40935,-1.40215 0.22545,-0.49178 0.64356,-1.2613 0.92913,-1.71004 0.28558,-0.44874 0.61482,-1.03205 0.73166,-1.29624 0.63864,-1.44406 2.28792,-2.96828 3.68405,-3.40468 0.33252,-0.10395 0.74404,-0.14415 1.43933,-0.14064 0.86503,0.004 1.0623,0.0351 1.76804,0.27517 0.43692,0.14863 0.91887,0.27024 1.071,0.27024 0.15215,0 0.90936,-0.21006 1.6827,-0.46679 1.61254,-0.53534 2.34566,-0.63842 3.09645,-0.4354 0.60163,0.16268 0.72585,0.0926 0.79786,-0.45031 0.21108,-1.59117 1.4311,-3.89288 3.11196,-5.87111 0.38848,-0.4572 0.77203,-0.9144 0.85233,-1.015998 0.0843,-0.1067 0.27292,-0.792656 0.44648,-1.624055 0.49166,-2.355175 1.2963,-5.273384 1.63956,-5.94621 0.21682,-0.425018 0.7458,-0.901774 1.16472,-1.049738 0.20199,-0.07134 0.68735,-0.116052 1.2599,-0.116052 0.88779,0 0.95618,0.01297 1.46265,0.277468 0.29222,0.152607 0.7549,0.334749 1.02818,0.40476 0.57222,0.146597 0.6855,0.129135 3.39351,-0.523108 2.90549,-0.699809 2.96326,-0.682024 3.67279,1.130867 0.16833,0.430092 0.45696,1.282052 0.64139,1.893244 0.18444,0.611191 0.39331,1.199725 0.46416,1.307854 0.0897,0.136943 0.34129,0.26183 0.82907,0.411581 0.99291,0.304835 1.33257,0.513111 2.15959,1.324243 0.89571,0.878524 1.36814,1.508753 1.85152,2.469999 0.69406,1.380205 0.75355,1.724405 0.75034,4.341755 -0.003,2.46281 -0.10145,3.43321 -0.50634,4.99152 -0.55708,2.14408 -1.83294,4.49656 -3.26089,6.01253 -1.02107,1.08401 -1.06303,1.2348 -0.75789,2.7238 0.23022,1.12341 0.21852,1.09661 0.57413,1.3154 0.17222,0.10597 0.71773,0.58214 1.21225,1.05816 0.49451,0.47601 0.98981,0.88786 1.10066,0.91521 0.11086,0.0274 0.64644,-0.0267 1.1902,-0.12011 1.39842,-0.24025 5.55804,-0.699 5.75917,-0.63517 0.0924,0.0293 0.22215,0.18299 0.28838,0.34149 0.15302,0.36622 0.37296,0.37558 1.03071,0.0439 0.79725,-0.40203 1.5698,-0.59451 3.27149,-0.81508 0.88858,-0.11517 1.71814,-0.23127 1.84347,-0.25799 0.44577,-0.0951 0.6554,0.18182 0.9144,1.20771 0.12132,0.4806 0.27892,0.61764 0.71029,0.61764 0.34668,0 0.38671,0.03 1.18548,0.889 0.45467,0.48895 0.85464,0.889 0.8888,0.889 0.0342,0 0.19304,-0.27063 0.35306,-0.60141 0.32899,-0.68006 0.76234,-1.12043 1.24484,-1.26499 0.18716,-0.0561 0.67258,-0.0855 1.12933,-0.0685 0.69863,0.026 0.87114,0.0648 1.34916,0.30269 0.69028,0.34357 1.28763,0.85643 1.5814,1.35773 0.2905,0.49569 0.3008,1.25864 0.0268,1.98786 -0.10036,0.26716 -0.15863,0.52433 -0.12948,0.5715 0.0291,0.0472 0.30652,0.0858 0.61638,0.0858 h 0.56336 l 0.42646,0.44634 c 0.36538,0.38241 0.69079,0.57823 2.27158,1.36696 1.0148,0.50635 1.88293,0.99129 1.92914,1.07766 0.0462,0.0864 0.16843,0.21186 0.27157,0.27886 0.16613,0.10792 0.24489,0.10236 0.69037,-0.0488 0.63378,-0.215 0.96788,-0.15901 1.40437,0.23534 l 0.33079,0.29884 0.39064,-0.28053 c 0.5513,-0.39592 0.94015,-0.3874 1.36974,0.03 0.3726,0.36201 0.69273,0.50027 1.16531,0.50327 0.45646,0.003 0.6683,0.15545 0.79276,0.57084 0.0572,0.19094 0.13642,0.34717 0.17603,0.34717 0.0396,0 0.30036,-0.40958 0.57943,-0.91017 0.27906,-0.50059 0.85578,-1.51284 1.2816,-2.24945 1.61397,-2.79193 2.71425,-5.19564 3.63068,-7.93171 l 0.63808,-1.905 -0.0147,-1.18534 c -0.0151,-1.22194 -0.15181,-3.53064 -0.23562,-3.97933 -0.0735,-0.3936 -1.12141,-3.63511 -1.45062,-4.48733 -0.27561,-0.71346 -0.29013,-0.79976 -0.22803,-1.35467 0.0786,-0.70264 0.0776,-1.21603 -0.005,-2.413 -0.0438,-0.63642 -0.0221,-1.20863 0.0764,-2.01401 0.0757,-0.61875 0.11337,-1.22835 0.0838,-1.35466 -0.0731,-0.31187 -2.59165,-6.204258 -3.48182,-8.145853 -3.3521,-7.312287 -7.6256,-14.930603 -11.77822,-20.997647 -3.9096,-5.711973 -7.67606,-10.295707 -12.07338,-14.693139 -5.83067,-5.830833 -11.62591,-10.056992 -18.10325,-13.201742 -10.21275,-4.958301 -20.86974,-6.138606 -31.29572,-3.466131 -5.5665,1.426854 -11.11231,3.962931 -16.510756,7.550306 -10.696968,7.108354 -20.651635,18.58219 -29.06914,33.505344 -1.973427,3.498633 -4.466263,8.415249 -6.196156,12.220668 -9.118629,20.059164 -15.517399,44.215364 -18.539931,69.990664 -1.069491,9.12032 -1.793506,19.52624 -1.955768,28.10933 -0.06306,3.33575 -0.173129,5.7855 -0.42225,9.398 -0.112395,1.62983 -0.252012,3.66818 -0.31026,4.52967 -0.07207,1.06584 -0.09906,3.35964 -0.08447,7.17867 0.02126,5.56811 -0.002,6.71488 -0.326433,16.10466 -0.303887,8.79462 -0.335128,10.84608 -0.336195,22.07683 l -0.0011,11.1125 h 13.287674 c 7.308219,0 13.306222,-0.03 13.328895,-0.0667 z m 10.350591,-0.38752 c -0.458324,-0.4121 -0.50108,-0.4813 -0.538592,-0.87169 -0.05406,-0.56257 0.119516,-0.89048 0.592587,-1.11949 0.427575,-0.20698 1.106991,-0.3486 1.672462,-0.3486 0.729264,0 2.473271,-0.34727 4.105389,-0.81749 2.668971,-0.76894 4.651931,-1.57878 6.090617,-2.48738 l 0.557206,-0.35191 -0.212412,-0.25244 c -0.116825,-0.13884 -0.212411,-0.33553 -0.212411,-0.43709 0,-0.30881 1.080672,-1.83391 1.779763,-2.51169 0.392721,-0.38074 0.745664,-0.81543 0.881472,-1.08563 0.477257,-0.94952 2.120115,-3.81118 2.534833,-4.41536 0.238846,-0.34796 0.869068,-1.08994 1.400493,-1.64885 1.829289,-1.92389 2.51492,-2.8257 3.608169,-4.74582 0.318161,-0.5588 1.136076,-1.91135 1.817586,-3.00567 2.04881,-3.28981 2.57628,-4.20593 4.02165,-6.985 0.36329,-0.6985 0.90704,-1.72104 1.20833,-2.2723 0.50809,-0.92962 0.54492,-1.03246 0.50785,-1.41817 -0.0437,-0.45527 -0.0156,-0.51758 0.10188,-0.22536 0.0706,0.17555 0.0762,0.17058 0.0719,-0.0635 -0.002,-0.1397 -0.0301,-0.3683 -0.0612,-0.508 l -0.0566,-0.254 -0.10311,0.2888 c -0.0567,0.15883 -0.19545,0.40985 -0.3083,0.55781 -0.25258,0.33115 -2.83736,1.98469 -4.08386,2.61255 -1.12784,0.56808 -1.87199,1.08977 -2.870188,2.01218 -1.247286,1.15259 -1.952293,1.76648 -3.304024,2.87701 -2.044522,1.6797 -4.425773,3.71023 -5.103293,4.35165 -1.184116,1.12102 -3.808646,4.44462 -4.646647,5.88433 -1.623401,2.78905 -2.940262,4.97948 -3.092538,5.14405 -0.09723,0.10507 -0.579486,0.44509 -1.071676,0.7556 -2.023392,1.27648 -4.796582,3.21893 -5.407376,3.78754 -0.358702,0.33393 -1.11904,1.00011 -1.689642,1.48041 -1.26967,1.06874 -1.318463,1.07293 -1.704193,0.14637 -0.143072,-0.34368 -0.360146,-0.98204 -0.482387,-1.41859 -0.492076,-1.7573 -0.516565,-1.82618 -0.56807,-1.59805 -0.02628,0.11642 -0.187105,0.91652 -0.357383,1.778 -0.170278,0.86149 -0.42263,2.05558 -0.560781,2.65356 -0.138152,0.59797 -0.257546,1.31673 -0.265321,1.59724 -0.01265,0.45644 0.0096,0.53043 0.211735,0.7043 0.124228,0.10686 0.433614,0.27202 0.687524,0.36702 0.501913,0.18779 1.254582,0.61652 1.5575,0.88719 0.246774,0.22049 0.240696,0.52346 -0.01896,0.94503 -0.114725,0.18626 -0.209781,0.36724 -0.211234,0.40216 -0.0015,0.0349 0.902233,0.062 2.008191,0.0602 l 2.010834,-0.003 z m 18.25935,0.34839 c 0.05817,-0.16223 -0.09712,-0.40227 -0.259649,-0.40134 -0.163057,9.4e-4 -1.034188,0.3892 -1.034188,0.46095 0,0.0254 0.282575,0.0462 0.627945,0.0462 0.425672,0 0.640168,-0.0341 0.665892,-0.10583 z m 16.376962,-0.0847 c -0.23583,-1.0146 -0.31119,-1.41953 -0.31119,-1.67216 0,-0.56084 0.25095,-1.47917 0.58308,-2.13375 l 0.33281,-0.65593 -0.33241,-0.26328 c -0.20465,-0.16207 -0.33207,-0.33376 -0.33151,-0.44665 8.5e-4,-0.10087 0.21453,-0.56439 0.47562,-1.03006 0.26109,-0.46567 0.78582,-1.53247 1.16606,-2.37067 0.38025,-0.8382 0.94293,-1.9431 1.25042,-2.45533 1.06181,-1.76886 1.43285,-2.62112 2.47405,-5.68282 0.39608,-1.1647 1.04099,-2.85808 1.43314,-3.76307 0.77249,-1.78275 2.07168,-4.99506 2.51459,-6.21744 0.43523,-1.20119 1.23591,-2.89832 2.27685,-4.826 1.32397,-2.45186 1.90096,-3.25314 3.69146,-5.12652 0.58061,-0.60748 0.7012,-0.78247 0.75012,-1.08845 0.0602,-0.37637 0.22443,-0.58014 0.85096,-1.05578 0.41038,-0.31155 0.55715,-0.67121 0.55715,-1.36525 0,-0.68775 0.16443,-1.10159 0.51376,-1.29309 0.5818,-0.31892 0.62819,-0.38843 0.64367,-0.96423 0.008,-0.29517 0.0175,-0.62093 0.0212,-0.72391 0.004,-0.10298 0.16217,-0.34112 0.35215,-0.5292 l 0.34539,-0.34196 -0.0702,-0.57147 c -0.0386,-0.31432 -0.0662,-1.71187 -0.0613,-3.10568 l 0.009,-2.5342 -0.16705,0.20587 c -0.0919,0.11323 -0.52084,0.91072 -0.95321,1.7722 -0.76062,1.51543 -0.83483,1.62686 -2.28378,3.429 -2.66094,3.30956 -2.922,3.82351 -3.22555,6.35 -0.0466,0.38823 -0.099,0.46897 -0.63096,0.97367 -0.67035,0.63594 -0.97452,1.15737 -1.60514,2.75166 -0.63694,1.61025 -1.0898,2.39544 -2.71021,4.699 -1.66347,2.36477 -3.33325,4.79404 -3.79183,5.51647 -0.85301,1.34384 -1.29669,2.249 -2.67472,5.45681 -2.14576,4.99494 -2.48969,5.92078 -3.17338,8.54239 -0.23074,0.88477 -0.54196,1.98967 -0.69161,2.45533 -0.56096,1.74564 -0.8287,2.11035 -1.64704,2.24354 -0.77329,0.12585 -1.62478,0.48111 -1.68419,0.70266 -0.0275,0.10256 -0.0512,0.52937 -0.0526,0.94847 -0.005,1.49177 -0.39711,2.55598 -1.28006,3.47548 -0.46591,0.4852 -0.57658,0.69301 -0.44118,0.82841 0.031,0.031 1.82618,0.0564 3.98919,0.0564 h 3.93277 z m 30.47178,-0.0847 c -0.0297,-0.15134 -0.22308,-0.62403 -0.42982,-1.05042 -0.33246,-0.68567 -0.41045,-0.78665 -0.675,-0.87396 -0.57534,-0.18988 -0.64042,-0.37105 -0.64042,-1.78279 0,-1.48248 0.10541,-2.16215 0.89622,-5.77867 0.4982,-2.27834 0.56698,-2.70609 0.62917,-3.91266 0.0575,-1.11598 0.10732,-1.4591 0.28272,-1.94734 0.24962,-0.69488 0.43727,-1.60369 0.85532,-4.14233 0.41185,-2.50102 0.57677,-3.22873 1.11434,-4.917 0.52008,-1.63331 0.6822,-2.37043 1.63898,-7.45172 0.75888,-4.03029 0.79882,-4.20498 1.17583,-5.14276 0.29687,-0.73844 0.37446,-1.18231 0.56608,-3.23819 0.21468,-2.30328 0.47809,-3.25103 1.12689,-4.05447 0.30896,-0.38262 0.32522,-0.53477 0.10352,-0.96934 -0.26138,-0.51234 -0.2875,-0.87109 -0.17093,-2.34731 0.14514,-1.83779 0.0518,-2.75324 -0.46141,-4.52454 -0.61579,-2.12548 -0.73444,-2.8502 -0.81779,-4.99534 -0.12786,-3.29064 -0.55624,-7.45178 -1.06336,-10.32933 -0.40535,-2.30007 -0.76593,-3.75692 -0.97718,-3.9481 -0.16526,-0.14956 -0.17454,-0.148 -0.331,0.0556 -0.20676,0.26908 -0.2061,0.5107 0.002,0.86401 0.22244,0.377 0.31439,1.09166 0.43061,3.34678 0.11448,2.22134 0.0559,11.49403 -0.0803,12.69875 -0.0486,0.4305 -0.12808,1.93545 -0.1765,3.34434 -0.13399,3.89868 -0.3035,5.39423 -0.99088,8.74228 -0.18123,0.88273 -0.32411,1.88154 -0.36948,2.58285 -0.11489,1.77586 -0.40804,2.47384 -1.67994,3.99976 -0.53287,0.63931 -0.84376,1.29129 -0.99397,2.08453 -0.37247,1.96692 -0.6473,2.59538 -2.45435,5.61242 -1.69535,2.83056 -2.23025,3.64326 -3.2791,4.9821 -1.49309,1.90592 -2.23103,3.21727 -3.53744,6.2862 -0.42131,0.98971 -1.21637,2.67577 -1.7668,3.7468 -1.1399,2.218 -1.72206,3.51979 -1.89695,4.2418 -0.0666,0.27475 -0.14407,1.09009 -0.17226,1.81187 -0.0282,0.72178 -0.10641,1.54093 -0.17382,1.82033 -0.2307,0.95618 -0.15544,1.17857 0.57956,1.71285 0.23916,0.17385 0.63031,0.47377 0.86919,0.66651 0.79722,0.64316 1.66893,0.96043 3.12165,1.13618 0.98179,0.11878 1.7817,0.3207 2.01323,0.50819 0.1625,0.13157 0.18107,0.22136 0.16403,0.79283 l -0.0192,0.64444 h 3.82107 3.82106 l -0.0539,-0.27516 z m 67.04567,-5.92667 c 0.0341,-3.13161 0.0672,-11.98033 0.0737,-19.66383 0.0113,-13.4462 0.003,-14.27317 -0.22422,-22.05567 -0.12978,-4.44712 -0.27224,-10.75267 -0.31658,-14.01233 -0.0443,-3.25967 -0.10069,-6.21242 -0.12524,-6.56167 -0.0245,-0.34925 -0.10197,-1.56845 -0.17207,-2.70933 -0.0701,-1.14088 -0.33446,-4.60798 -0.58749,-7.70467 -0.25302,-3.09668 -0.539,-6.67808 -0.6355,-7.95866 -1.38533,-18.3832 -4.44592,-36.13795 -9.09265,-52.74734 -0.8579,-3.06648 -0.94055,-3.33902 -0.96855,-3.19366 -0.0221,0.11466 -0.0617,0.12698 -0.18903,0.0588 -0.13381,-0.0716 -0.16754,-0.0536 -0.19906,0.10615 -0.28834,1.46148 -1.03416,5.63998 -1.22819,6.88103 -0.45804,2.92961 -1.43337,7.50841 -2.09205,9.82133 -0.39278,1.37925 -0.96445,2.82415 -1.44041,3.64067 -0.80894,1.38775 -0.96797,1.7097 -1.17672,2.3821 -0.28226,0.90924 -0.57467,1.30327 -1.15124,1.5513 -0.40452,0.17401 -0.53707,0.18947 -1.21321,0.14148 -0.41749,-0.0296 -0.98162,-0.0998 -1.25362,-0.15603 l -0.49454,-0.10215 -0.2878,0.31415 c -0.26657,0.29097 -0.32288,0.31415 -0.76335,0.31415 -0.50079,0 -0.72189,-0.078 -1.03798,-0.36595 l -0.19257,-0.17546 -0.57956,0.31304 c -0.88306,0.47696 -1.06495,0.43131 -1.86282,-0.46752 -0.50258,-0.56617 -0.62709,-0.81933 -0.73001,-1.48428 -0.0619,-0.40025 -0.0872,-0.41386 -0.4333,-0.23336 -0.3089,0.16111 -0.67588,0.16128 -1.13151,8.5e-4 -0.19853,-0.07 -0.64943,-0.12722 -1.00547,-0.1275 -0.79834,-8.5e-4 -2.04841,-0.18776 -2.88919,-0.43251 -0.45659,-0.13292 -0.88477,-0.18768 -1.524,-0.19492 -0.86518,-0.01 -0.90489,-0.0188 -1.48167,-0.3375 -1.30172,-0.71915 -1.17418,-0.68066 -1.89279,-0.57129 -1.09958,0.16735 -1.45265,0.13425 -2.07185,-0.19424 l -0.54969,-0.29162 -0.70512,1.40736 c -0.38781,0.77404 -0.80377,1.54344 -0.92436,1.70978 -0.32961,0.45467 -1.00069,0.78395 -1.69961,0.83396 -0.32288,0.0231 -0.61923,0.09 -0.67003,0.15116 -0.0501,0.0604 -0.1472,0.54105 -0.21579,1.0682 -0.3364,2.58496 -0.93586,5.75074 -1.43113,7.55786 -0.16278,0.59392 -0.29596,1.13823 -0.29596,1.20957 0,0.0713 0.0809,0.26055 0.17971,0.42048 0.2677,0.43314 0.1816,0.87754 -0.39583,2.04327 l -0.48937,0.98794 -0.0645,1.10066 c -0.0489,0.83516 -0.11851,1.26407 -0.28857,1.778 -0.41291,1.24795 -0.35211,2.84847 0.17766,4.67658 0.29158,1.00618 0.28567,1.0323 -0.33601,1.48595 -0.1532,0.11181 -0.15134,0.12706 0.0556,0.45489 0.11777,0.18655 0.25458,0.48569 0.30402,0.66474 0.1183,0.42843 -0.0789,0.87624 -0.61276,1.39124 l -0.38981,0.37606 0.58601,0.60436 c 0.66401,0.68479 0.76898,0.93808 0.56556,1.36465 -0.17854,0.37442 -0.1771,0.38935 0.0733,0.75825 0.11641,0.17155 0.21166,0.37252 0.21166,0.44659 0,0.0741 -0.13351,0.35099 -0.29668,0.61535 -0.16318,0.26437 -0.27572,0.53532 -0.25008,0.60212 0.0256,0.0668 0.18971,0.20189 0.36462,0.30018 0.50161,0.28193 0.63608,0.47328 0.57915,0.82414 -0.0396,0.24426 8.5e-4,0.37928 0.20865,0.70041 l 0.25776,0.39783 -0.0719,1.48166 c -0.14324,2.95282 -0.0789,4.25739 0.39487,8.001 0.35513,2.80638 0.57111,4.88608 0.66827,6.43467 0.13857,2.20872 0.18772,8.1662 0.0933,11.303 -0.10338,3.43241 -0.25487,5.20859 -0.57918,6.79084 l -0.23608,1.15175 0.19281,1.46854 c 0.26084,1.98674 0.33844,3.49566 0.202,3.9278 -0.0581,0.18411 -0.249,0.58239 -0.42418,0.88507 -0.4451,0.76911 -0.48187,0.92507 -0.67867,2.87867 -0.27141,2.69421 -0.45191,3.46291 -1.19146,5.0742 -0.40514,0.88267 -0.42986,0.97359 -0.35009,1.28781 0.0542,0.21345 0.0571,0.43743 0.008,0.60754 -0.0429,0.1482 -0.2507,1.06955 -0.46183,2.04745 -0.21112,0.9779 -0.66498,2.86385 -1.00855,4.191 -0.72091,2.78468 -2.01731,8.16235 -2.2962,9.525 -0.10484,0.51223 -0.23302,1.38853 -0.28485,1.94733 -0.24376,2.62822 -0.52059,4.82948 -0.67298,5.35147 -0.0436,0.14931 -0.14907,0.39 -0.2344,0.53486 -0.15186,0.25785 -0.15157,0.26536 0.0142,0.35709 0.0931,0.0515 0.29015,0.21361 0.43782,0.36016 0.38656,0.38364 0.43755,0.77525 0.20954,1.60909 -0.10186,0.37253 -0.37245,1.39418 -0.6013,2.27032 -0.41145,1.5752 -0.41426,1.5948 -0.25224,1.75683 0.0901,0.0901 0.1989,0.16385 0.24175,0.16385 0.0428,0 1.06202,0.472 2.26483,1.04891 1.20281,0.5769 2.59834,1.19234 3.10117,1.36764 0.97898,0.3413 1.19912,0.51371 1.29267,1.01237 0.0356,0.18985 -0.002,0.40158 -0.11714,0.66225 -0.0932,0.21076 -0.14754,0.40516 -0.12069,0.43201 0.0269,0.0268 10.57253,0.0488 23.43485,0.0488 h 23.38602 l 0.062,-5.69384 z m -101.98877,-30.6281 c 0.002,-0.40351 -0.0238,-0.5887 -0.071,-0.508 -0.11969,0.20422 -0.24396,1.01536 -0.16322,1.06526 0.0404,0.025 0.0761,0.12888 0.0794,0.23091 0.006,0.17885 0.009,0.17942 0.0787,0.0162 0.04,-0.0931 0.0743,-0.45509 0.0761,-0.80434 z m 1.52204,-2.17469 c 0.42112,-0.5684 0.72478,-1.44127 0.66263,-1.90469 -0.0358,-0.26667 -0.0204,-0.3264 0.0747,-0.2899 0.0783,0.03 0.11978,-0.0118 0.11978,-0.12071 0,-0.26777 -0.18671,-0.18773 -0.55822,0.2393 -0.3614,0.41543 -1.81244,3.10015 -1.81244,3.3534 0,0.21244 1.09347,-0.71044 1.51352,-1.2774 z m 36.65003,-32.98314 c -0.0216,-0.0582 -0.0894,-0.36084 -0.15063,-0.67251 -0.0999,-0.50806 -0.1274,-0.55811 -0.26615,-0.48386 -0.20093,0.10754 -0.19609,0.29396 0.0146,0.56177 0.0931,0.1184 0.16933,0.32443 0.16933,0.45786 0,0.16636 0.0427,0.24258 0.13606,0.24258 0.0748,0 0.1184,-0.0476 0.0968,-0.10584 z m -0.23288,-1.42115 c 0,-0.11213 -0.11465,-0.10249 -0.23707,0.0199 -0.15981,0.15982 -0.11875,0.2522 0.0677,0.1524 0.0931,-0.0498 0.16933,-0.12738 0.16933,-0.17232 z M 131.7768,130.59028 c -0.0575,-0.18117 -0.4492,-0.56809 -0.51176,-0.50553 -0.0639,0.0639 0.13119,0.59792 0.28205,0.7722 0.1164,0.13448 0.13926,0.13664 0.20484,0.0195 0.0406,-0.0726 0.0518,-0.20132 0.0249,-0.28614 z m -0.21538,0.16264 c 0,-0.0438 0.0377,-0.10294 0.0837,-0.13139 0.048,-0.0297 0.0622,0.004 0.0333,0.0797 -0.0563,0.14667 -0.11697,0.17351 -0.11697,0.0517 z m 6.16185,-4.99164 c 0.0595,-0.0847 0.19627,-0.47374 0.30392,-0.86451 0.10764,-0.39078 0.27803,-0.89633 0.37864,-1.12344 0.10061,-0.22711 0.18292,-0.49406 0.18292,-0.59323 0,-0.0992 -0.28924,-0.61318 -0.64278,-1.14223 -0.35352,-0.52906 -0.90751,-1.48842 -1.23108,-2.1319 -0.63667,-1.26614 -1.11147,-1.82047 -1.86957,-2.18271 -0.95961,-0.45853 -1.10191,-0.31053 -0.82609,0.85912 0.25691,1.08938 0.25356,2.516 -0.008,3.61421 -0.23257,0.97481 -0.23055,1.03869 0.0433,1.36412 0.37427,0.44479 0.28555,0.86552 -0.31381,1.48829 l -0.34142,0.35476 0.57517,0.61891 c 0.51041,0.54925 1.05851,1.44753 1.0587,1.73512 8e-5,0.11354 2.52391,-1.75922 2.69059,-1.99651 z m 59.49008,-6.8969 c -0.0576,-0.15012 -0.28926,-0.19373 -0.28926,-0.0545 0,0.0466 0.0571,0.0847 0.127,0.0847 0.0699,0 0.127,0.0444 0.127,0.0988 0,0.0543 0.0199,0.0788 0.0443,0.0545 0.0244,-0.0244 0.0203,-0.10693 -0.009,-0.18344 z m -4.39677,-12.21504 c 0.0759,-0.0758 0.12186,-0.18063 0.10224,-0.23283 -0.0196,-0.0522 -0.1219,-0.3323 -0.22728,-0.62244 -0.10538,-0.29014 -0.22487,-0.50696 -0.26553,-0.48184 -0.10029,0.062 -0.0939,0.98807 0.009,1.25785 0.0958,0.25198 0.18971,0.27147 0.38192,0.0793 z m -0.37982,-1.61785 c 0,-0.041 -0.0559,-0.14849 -0.12431,-0.23888 -0.11555,-0.15277 -0.12449,-0.13857 -0.127,0.20153 -0.002,0.32523 0.0114,0.35177 0.12431,0.23888 0.0699,-0.0699 0.127,-0.16054 0.127,-0.20153 z"
       style="fill:#000000;stroke-width:0.08466667" />
  </g>
</svg>
